<svg xmlns="http://www.w3.org/2000/svg" xmlns:xlink="http://www.w3.org/1999/xlink" width="500" zoomAndPan="magnify" viewBox="0 0 375 374.999991" height="500" preserveAspectRatio="xMidYMid meet" version="1.0"><defs><clipPath id="8b59793e8d"><path d="M 51 228 L 122 228 L 122 342 L 51 342 Z M 51 228 " clip-rule="nonzero"/></clipPath><clipPath id="c872160ce0"><path d="M 73.691406 228.738281 L 121.746094 250.453125 L 75.425781 352.972656 L 27.371094 331.261719 Z M 73.691406 228.738281 " clip-rule="nonzero"/></clipPath><clipPath id="5abdae828f"><path d="M 51.402344 341.847656 L 121.554688 250.367188 L 73.691406 228.738281 L 51.402344 341.847656 " clip-rule="nonzero"/></clipPath><clipPath id="db74eba5a6"><path d="M 83 64 L 141 64 L 141 189 L 83 189 Z M 83 64 " clip-rule="nonzero"/></clipPath><clipPath id="1430ef0c2d"><path d="M 108.121094 64.375 L 141.375 75.785156 L 100.488281 194.941406 L 67.238281 183.53125 Z M 108.121094 64.375 " clip-rule="nonzero"/></clipPath><clipPath id="4916cbabc0"><path d="M 83.765625 188.855469 L 140.96875 75.644531 L 108.121094 64.375 L 83.765625 188.855469 " clip-rule="nonzero"/></clipPath><clipPath id="89cf0c8abd"><path d="M 73.546875 228.738281 L 193.171875 228.738281 L 193.171875 258.636719 L 73.546875 258.636719 Z M 73.546875 228.738281 " clip-rule="nonzero"/></clipPath><clipPath id="10770fa31c"><path d="M 172 269 L 219 269 L 219 342 L 172 342 Z M 172 269 " clip-rule="nonzero"/></clipPath><clipPath id="70b1712070"><path d="M 172.308594 283.574219 L 202.960938 269.246094 L 233.730469 335.070312 L 203.082031 349.398438 Z M 172.308594 283.574219 " clip-rule="nonzero"/></clipPath><clipPath id="346ed8b39c"><path d="M 218.0625 341.796875 L 202.734375 269.351562 L 172.308594 283.574219 L 218.0625 341.796875 " clip-rule="nonzero"/></clipPath><clipPath id="e61fedcffe"><path d="M 126 45 L 200 45 L 200 257 L 126 257 Z M 126 45 " clip-rule="nonzero"/></clipPath><clipPath id="4ceb7cfbc8"><path d="M 126.5 51.75 L 159.253906 45.226562 L 200.210938 250.957031 L 167.457031 257.476562 Z M 126.5 51.75 " clip-rule="nonzero"/></clipPath><clipPath id="cd63575522"><path d="M 126.5 51.75 L 158.917969 45.296875 L 199.804688 250.671875 L 167.386719 257.128906 Z M 126.5 51.75 " clip-rule="nonzero"/></clipPath><clipPath id="6b0417373f"><path d="M 122 24 L 163 24 L 163 67 L 122 67 Z M 122 24 " clip-rule="nonzero"/></clipPath><clipPath id="54233dc0d1"><path d="M 135.796875 16.925781 L 175.855469 31.714844 L 162.753906 67.195312 L 122.695312 52.40625 Z M 135.796875 16.925781 " clip-rule="nonzero"/></clipPath><clipPath id="2600228943"><path d="M 155.539062 24.214844 L 162.378906 66.457031 L 122.890625 51.875 L 155.539062 24.214844 " clip-rule="nonzero"/></clipPath><clipPath id="3d72944d65"><path d="M 107 40 L 145 40 L 145 77 L 107 77 Z M 107 40 " clip-rule="nonzero"/></clipPath><clipPath id="02f393dc97"><path d="M 117.742188 34.714844 L 154.441406 46.78125 L 144.523438 76.945312 L 107.824219 64.878906 Z M 117.742188 34.714844 " clip-rule="nonzero"/></clipPath><clipPath id="e69fb5f611"><path d="M 135.953125 40.703125 L 144.308594 76.644531 L 107.894531 64.671875 L 135.953125 40.703125 " clip-rule="nonzero"/></clipPath><clipPath id="c60b3beca1"><path d="M 113 58 L 160 58 L 160 77 L 113 77 Z M 113 58 " clip-rule="nonzero"/></clipPath><clipPath id="38968e85b6"><path d="M 113.335938 75.191406 L 117.421875 57.492188 L 161.953125 67.765625 L 157.871094 85.464844 Z M 113.335938 75.191406 " clip-rule="nonzero"/></clipPath><clipPath id="a10987ba30"><path d="M 159.34375 76.777344 L 117.292969 58.046875 L 113.335938 75.191406 L 159.34375 76.777344 " clip-rule="nonzero"/></clipPath><clipPath id="723db10319"><path d="M 109 60 L 129 60 L 129 72 L 109 72 Z M 109 60 " clip-rule="nonzero"/></clipPath><clipPath id="df3e78d8cb"><path d="M 111.378906 58.054688 L 131.027344 62.863281 L 128.847656 71.765625 L 109.199219 66.957031 Z M 111.378906 58.054688 " clip-rule="nonzero"/></clipPath><clipPath id="4d9ebfcef9"><path d="M 121.203125 60.457031 L 128.863281 71.703125 L 109.214844 66.898438 L 121.203125 60.457031 " clip-rule="nonzero"/></clipPath><clipPath id="60598f4ee6"><path d="M 173 91 L 241 91 L 241 136 L 173 136 Z M 173 91 " clip-rule="nonzero"/></clipPath><clipPath id="39a066d9f6"><path d="M 240.671875 113.386719 L 228.339844 136.175781 L 166.679688 102.804688 L 179.011719 80.015625 Z M 240.671875 113.386719 " clip-rule="nonzero"/></clipPath><clipPath id="902cceac5a"><path d="M 173.246094 91.394531 L 228.535156 135.8125 L 240.671875 113.386719 L 173.246094 91.394531 " clip-rule="nonzero"/></clipPath><clipPath id="7302562948"><path d="M 230 112 L 289 112 L 289 154 L 230 154 Z M 230 112 " clip-rule="nonzero"/></clipPath><clipPath id="f32fe00bf6"><path d="M 238.179688 112.570312 L 288.871094 129.191406 L 280.796875 153.8125 L 230.105469 137.191406 Z M 238.179688 112.570312 " clip-rule="nonzero"/></clipPath><clipPath id="767569193e"><path d="M 238.179688 112.570312 L 288.71875 129.140625 L 280.777344 153.371094 L 230.234375 136.804688 Z M 238.179688 112.570312 " clip-rule="nonzero"/></clipPath><clipPath id="9d5a993ff9"><path d="M 227 122 L 237 122 L 237 137 L 227 137 Z M 227 122 " clip-rule="nonzero"/></clipPath><clipPath id="13d74d976c"><path d="M 234.789062 121.3125 L 237.839844 122.839844 L 230.636719 137.226562 L 227.582031 135.699219 Z M 234.789062 121.3125 " clip-rule="nonzero"/></clipPath><clipPath id="b7628e13df"><path d="M 236.242188 122.039062 L 230.609375 136.917969 L 227.703125 135.460938 L 236.242188 122.039062 " clip-rule="nonzero"/></clipPath><clipPath id="f93b2849be"><path d="M 266 129 L 315 129 L 315 190 L 266 190 Z M 266 129 " clip-rule="nonzero"/></clipPath><clipPath id="44ef5e9b66"><path d="M 266.296875 141.257812 L 289.078125 128.917969 L 315.457031 177.605469 L 292.675781 189.949219 Z M 266.296875 141.257812 " clip-rule="nonzero"/></clipPath><clipPath id="e38505de07"><path d="M 266.296875 141.257812 L 288.71875 129.113281 L 314.933594 177.496094 L 292.511719 189.644531 Z M 266.296875 141.257812 " clip-rule="nonzero"/></clipPath><clipPath id="e010deabb9"><path d="M 277 168 L 315 168 L 315 216 L 277 216 Z M 277 168 " clip-rule="nonzero"/></clipPath><clipPath id="189f074b07"><path d="M 290.910156 168.804688 L 315.304688 177.53125 L 301.617188 215.800781 L 277.21875 207.074219 Z M 290.910156 168.804688 " clip-rule="nonzero"/></clipPath><clipPath id="8bc3218d04"><path d="M 290.910156 168.804688 L 314.921875 177.390625 L 301.277344 215.535156 L 277.265625 206.945312 Z M 290.910156 168.804688 " clip-rule="nonzero"/></clipPath><clipPath id="09fc17603d"><path d="M 270 200 L 326 200 L 326 247 L 270 247 Z M 270 200 " clip-rule="nonzero"/></clipPath><clipPath id="556481720b"><path d="M 270.832031 223.050781 L 283.207031 200.863281 L 325.800781 224.621094 L 313.429688 246.804688 Z M 270.832031 223.050781 " clip-rule="nonzero"/></clipPath><clipPath id="dc0d19a9d2"><path d="M 270.832031 223.050781 L 283.203125 200.871094 L 325.410156 224.410156 L 313.042969 246.589844 Z M 270.832031 223.050781 " clip-rule="nonzero"/></clipPath><clipPath id="c5bfe86b24"><path d="M 301 224 L 346 224 L 346 297 L 301 297 Z M 301 224 " clip-rule="nonzero"/></clipPath><clipPath id="ec456ceb8f"><path d="M 301.109375 232.175781 L 325.703125 224.4375 L 346.105469 289.269531 L 321.511719 297.011719 Z M 301.109375 232.175781 " clip-rule="nonzero"/></clipPath><clipPath id="5c86a61122"><path d="M 301.109375 232.175781 L 325.429688 224.523438 L 345.738281 289.046875 L 321.414062 296.699219 Z M 301.109375 232.175781 " clip-rule="nonzero"/></clipPath><clipPath id="65f17a448a"><path d="M 296 277 L 346 277 L 346 342 L 296 342 Z M 296 277 " clip-rule="nonzero"/></clipPath><clipPath id="43b47bdc7b"><path d="M 322.972656 277.210938 L 345.988281 288.832031 L 319.3125 341.660156 L 296.296875 330.039062 Z M 322.972656 277.210938 " clip-rule="nonzero"/></clipPath><clipPath id="0b90ebcb85"><path d="M 322.972656 277.210938 L 345.734375 288.707031 L 319.292969 341.074219 L 296.53125 329.578125 Z M 322.972656 277.210938 " clip-rule="nonzero"/></clipPath><clipPath id="53006bf7e7"><path d="M 270.832031 315.554688 L 318.859375 315.554688 L 318.859375 341.054688 L 270.832031 341.054688 Z M 270.832031 315.554688 " clip-rule="nonzero"/></clipPath><clipPath id="35e1d1e88c"><path d="M 224.144531 315.554688 L 317.894531 315.554688 L 317.894531 341.335938 L 224.144531 341.335938 Z M 224.144531 315.554688 " clip-rule="nonzero"/></clipPath><clipPath id="725374a6f7"><path d="M 270.832031 315.554688 L 317.519531 341.074219 L 224.144531 341.074219 L 270.832031 315.554688 " clip-rule="nonzero"/></clipPath><clipPath id="bcc7ece079"><path d="M 256.425781 203.308594 L 301 203.308594 L 301 228.808594 L 256.425781 228.808594 Z M 256.425781 203.308594 " clip-rule="nonzero"/></clipPath><clipPath id="9b4ada7228"><path d="M 218 203.308594 L 294.757812 203.308594 L 294.757812 229 L 218 229 Z M 218 203.308594 " clip-rule="nonzero"/></clipPath><clipPath id="83b002cd73"><path d="M 256.367188 228.808594 L 294.734375 203.308594 L 218 203.308594 L 256.367188 228.808594 " clip-rule="nonzero"/></clipPath><clipPath id="99ba885203"><path d="M 111 224 L 202 224 L 202 259 L 111 259 Z M 111 224 " clip-rule="nonzero"/></clipPath><clipPath id="2f0780546b"><path d="M 194.699219 224.402344 L 201.289062 258.335938 L 114.433594 275.199219 L 107.84375 241.261719 Z M 194.699219 224.402344 " clip-rule="nonzero"/></clipPath><clipPath id="0eced49a89"><path d="M 111.414062 258.171875 L 201.285156 258.328125 L 194.699219 224.402344 L 111.414062 258.171875 " clip-rule="nonzero"/></clipPath><clipPath id="6bdbba64fd"><path d="M 161 269 L 187 269 L 187 294 L 161 294 Z M 161 269 " clip-rule="nonzero"/></clipPath><clipPath id="12e9fda19a"><path d="M 180.222656 293.808594 L 161.191406 269.1875 L 177.324219 256.71875 L 196.351562 281.339844 Z M 180.222656 293.808594 " clip-rule="nonzero"/></clipPath><clipPath id="d11bd4ebc7"><path d="M 186.578125 269.355469 L 161.316406 269.34375 L 180.222656 293.808594 L 186.578125 269.355469 " clip-rule="nonzero"/></clipPath><clipPath id="79ccd64334"><path d="M 172.308594 269.355469 L 202.792969 269.355469 L 202.792969 281.039062 L 172.308594 281.039062 Z M 172.308594 269.355469 " clip-rule="nonzero"/></clipPath><clipPath id="54ec3f51bd"><path d="M 224.144531 113.320312 L 246 113.320312 L 246 135.921875 L 224.144531 135.921875 Z M 224.144531 113.320312 " clip-rule="nonzero"/></clipPath><clipPath id="4a6847f966"><path d="M 235.140625 113.320312 C 229.066406 113.320312 224.144531 118.355469 224.144531 124.570312 C 224.144531 130.78125 229.066406 135.816406 235.140625 135.816406 C 241.214844 135.816406 246.136719 130.78125 246.136719 124.570312 C 246.136719 118.355469 241.214844 113.320312 235.140625 113.320312 " clip-rule="nonzero"/></clipPath></defs><g clip-path="url(#8b59793e8d)"><g clip-path="url(#c872160ce0)"><g clip-path="url(#5abdae828f)"><path fill="#c5c5c5" d="M 73.691406 228.738281 L 121.746094 250.453125 L 75.425781 352.972656 L 27.371094 331.261719 Z M 73.691406 228.738281 " fill-opacity="1" fill-rule="nonzero"/></g></g></g><g clip-path="url(#db74eba5a6)"><g clip-path="url(#1430ef0c2d)"><g clip-path="url(#4916cbabc0)"><path fill="#c5c5c5" d="M 108.121094 64.375 L 140.820312 75.59375 L 100.125 194.195312 L 67.425781 182.976562 Z M 108.121094 64.375 " fill-opacity="1" fill-rule="nonzero"/></g></g></g><g clip-path="url(#89cf0c8abd)"><path fill="#c5c5c5" d="M 73.546875 228.738281 L 193.078125 228.738281 L 193.078125 258.621094 L 73.546875 258.621094 Z M 73.546875 228.738281 " fill-opacity="1" fill-rule="nonzero"/></g><g clip-path="url(#10770fa31c)"><g clip-path="url(#70b1712070)"><g clip-path="url(#346ed8b39c)"><path fill="#c5c5c5" d="M 172.308594 283.574219 L 202.960938 269.246094 L 233.496094 334.570312 L 202.84375 348.898438 Z M 172.308594 283.574219 " fill-opacity="1" fill-rule="nonzero"/></g></g></g><g clip-path="url(#e61fedcffe)"><g clip-path="url(#4ceb7cfbc8)"><g clip-path="url(#cd63575522)"><path fill="#c5c5c5" d="M 126.5 51.75 L 158.679688 45.34375 L 199.523438 250.496094 L 167.34375 256.902344 Z M 126.5 51.75 " fill-opacity="1" fill-rule="nonzero"/></g></g></g><g clip-path="url(#6b0417373f)"><g clip-path="url(#54233dc0d1)"><g clip-path="url(#2600228943)"><path fill="#c5c5c5" d="M 135.796875 16.925781 L 175.28125 31.503906 L 162.394531 66.414062 L 122.90625 51.832031 Z M 135.796875 16.925781 " fill-opacity="1" fill-rule="nonzero"/></g></g></g><g clip-path="url(#3d72944d65)"><g clip-path="url(#02f393dc97)"><g clip-path="url(#e69fb5f611)"><path fill="#c5c5c5" d="M 117.742188 34.714844 L 153.9375 46.617188 L 144.019531 76.777344 L 107.824219 64.878906 Z M 117.742188 34.714844 " fill-opacity="1" fill-rule="nonzero"/></g></g></g><g clip-path="url(#c60b3beca1)"><g clip-path="url(#38968e85b6)"><g clip-path="url(#a10987ba30)"><path fill="#c5c5c5" d="M 113.335938 75.191406 L 117.289062 58.0625 L 161.25 68.207031 L 157.296875 85.335938 Z M 113.335938 75.191406 " fill-opacity="1" fill-rule="nonzero"/></g></g></g><g clip-path="url(#723db10319)"><g clip-path="url(#df3e78d8cb)"><g clip-path="url(#4d9ebfcef9)"><path fill="#c5c5c5" d="M 111.378906 58.054688 L 131.027344 62.863281 L 128.847656 71.765625 L 109.199219 66.957031 Z M 111.378906 58.054688 " fill-opacity="1" fill-rule="nonzero"/></g></g></g><g clip-path="url(#60598f4ee6)"><g clip-path="url(#39a066d9f6)"><g clip-path="url(#902cceac5a)"><path fill="#962828" d="M 240.671875 113.386719 L 228.582031 135.726562 L 167.371094 102.597656 L 179.460938 80.257812 Z M 240.671875 113.386719 " fill-opacity="1" fill-rule="nonzero"/></g></g></g><g clip-path="url(#7302562948)"><g clip-path="url(#f32fe00bf6)"><g clip-path="url(#767569193e)"><path fill="#962828" d="M 238.179688 112.570312 L 288.871094 129.191406 L 280.957031 153.328125 L 230.265625 136.710938 Z M 238.179688 112.570312 " fill-opacity="1" fill-rule="nonzero"/></g></g></g><g clip-path="url(#9d5a993ff9)"><g clip-path="url(#13d74d976c)"><g clip-path="url(#b7628e13df)"><path fill="#962828" d="M 234.789062 121.3125 L 237.839844 122.839844 L 230.855469 136.789062 L 227.800781 135.261719 Z M 234.789062 121.3125 " fill-opacity="1" fill-rule="nonzero"/></g></g></g><g clip-path="url(#f93b2849be)"><g clip-path="url(#44ef5e9b66)"><g clip-path="url(#e38505de07)"><path fill="#962828" d="M 266.296875 141.257812 L 288.632812 129.160156 L 314.769531 177.402344 L 292.433594 189.503906 Z M 266.296875 141.257812 " fill-opacity="1" fill-rule="nonzero"/></g></g></g><g clip-path="url(#e010deabb9)"><g clip-path="url(#189f074b07)"><g clip-path="url(#8bc3218d04)"><path fill="#962828" d="M 290.910156 168.804688 L 314.828125 177.359375 L 301.140625 215.628906 L 277.21875 207.074219 Z M 290.910156 168.804688 " fill-opacity="1" fill-rule="nonzero"/></g></g></g><g clip-path="url(#09fc17603d)"><g clip-path="url(#556481720b)"><g clip-path="url(#dc0d19a9d2)"><path fill="#962828" d="M 270.832031 223.050781 L 283.207031 200.863281 L 325.359375 224.371094 L 312.984375 246.558594 Z M 270.832031 223.050781 " fill-opacity="1" fill-rule="nonzero"/></g></g></g><g clip-path="url(#c5bfe86b24)"><g clip-path="url(#ec456ceb8f)"><g clip-path="url(#5c86a61122)"><path fill="#962828" d="M 301.109375 232.175781 L 325.703125 224.4375 L 345.929688 288.710938 L 321.335938 296.449219 Z M 301.109375 232.175781 " fill-opacity="1" fill-rule="nonzero"/></g></g></g><g clip-path="url(#65f17a448a)"><g clip-path="url(#43b47bdc7b)"><g clip-path="url(#0b90ebcb85)"><path fill="#962828" d="M 322.972656 277.210938 L 345.988281 288.832031 L 319.574219 341.136719 L 296.5625 329.515625 Z M 322.972656 277.210938 " fill-opacity="1" fill-rule="nonzero"/></g></g></g><g clip-path="url(#53006bf7e7)"><path fill="#962828" d="M 270.832031 315.554688 L 318.878906 315.554688 L 318.878906 341.335938 L 270.832031 341.335938 Z M 270.832031 315.554688 " fill-opacity="1" fill-rule="nonzero"/></g><g clip-path="url(#35e1d1e88c)"><g clip-path="url(#725374a6f7)"><path fill="#962828" d="M 224.144531 315.554688 L 317.308594 315.554688 L 317.308594 341.335938 L 224.144531 341.335938 Z M 224.144531 315.554688 " fill-opacity="1" fill-rule="nonzero"/></g></g><g clip-path="url(#bcc7ece079)"><path fill="#962828" d="M 256.425781 203.308594 L 300.957031 203.308594 L 300.957031 229.089844 L 256.425781 229.089844 Z M 256.425781 203.308594 " fill-opacity="1" fill-rule="nonzero"/></g><g clip-path="url(#9b4ada7228)"><g clip-path="url(#83b002cd73)"><path fill="#962828" d="M 218 203.308594 L 294.757812 203.308594 L 294.757812 229.089844 L 218 229.089844 Z M 218 203.308594 " fill-opacity="1" fill-rule="nonzero"/></g></g><g clip-path="url(#99ba885203)"><g clip-path="url(#2f0780546b)"><g clip-path="url(#0eced49a89)"><path fill="#c5c5c5" d="M 194.699219 224.402344 L 201.289062 258.335938 L 114.433594 275.199219 L 107.84375 241.261719 Z M 194.699219 224.402344 " fill-opacity="1" fill-rule="nonzero"/></g></g></g><g clip-path="url(#6bdbba64fd)"><g clip-path="url(#12e9fda19a)"><g clip-path="url(#d11bd4ebc7)"><path fill="#c5c5c5" d="M 180.222656 293.808594 L 161.191406 269.1875 L 176.898438 257.046875 L 195.929688 281.667969 Z M 180.222656 293.808594 " fill-opacity="1" fill-rule="nonzero"/></g></g></g><g clip-path="url(#79ccd64334)"><path fill="#c5c5c5" d="M 172.308594 269.355469 L 202.816406 269.355469 L 202.816406 281.003906 L 172.308594 281.003906 Z M 172.308594 269.355469 " fill-opacity="1" fill-rule="nonzero"/></g><g clip-path="url(#54ec3f51bd)"><g clip-path="url(#4a6847f966)"><path fill="#962828" d="M 224.144531 113.320312 L 245.976562 113.320312 L 245.976562 135.921875 L 224.144531 135.921875 Z M 224.144531 113.320312 " fill-opacity="1" fill-rule="nonzero"/></g></g></svg>